<svg xmlns="http://www.w3.org/2000/svg" viewBox="0 0 600 400" width="600" height="400">
  <defs>
    <linearGradient id="grad-gaming" x1="0%" y1="0%" x2="100%" y2="100%">
      <stop offset="0%" style="stop-color:#8b5cf6;stop-opacity:1" />
      <stop offset="100%" style="stop-color:#6334ce;stop-opacity:1" />
    </linearGradient>
    <filter id="shadow-gaming" x="-50%" y="-50%" width="200%" height="200%">
      <feDropShadow dx="0" dy="10" stdDeviation="14" flood-color="#000000" flood-opacity="0.22" />
    </filter>
  </defs>

  <!-- background -->
  <rect width="600" height="400" fill="url(#grad-gaming)" rx="16" />

  <!-- icon backdrop -->
  <circle cx="300" cy="200" r="100" fill="#ffffff" fill-opacity="0.14" filter="url(#shadow-gaming)" />

  <!-- soft accent ring -->
  <circle cx="300" cy="200" r="118" fill="none" stroke="#ffffff" stroke-opacity="0.08" stroke-width="2" />

  <!-- icon -->
  <svg x="222" y="122" width="156" height="156" viewBox="0 0 24 24" fill="none" stroke="#ffffff" stroke-width="1.5" stroke-linecap="round" stroke-linejoin="round">
    <line x1="6" x2="10" y1="11" y2="11" fill="none" stroke="#ffffff" />
    <line x1="8" x2="8" y1="9" y2="13" fill="none" stroke="#ffffff" />
    <line x1="15" x2="15.01" y1="12" y2="12" fill="none" stroke="#ffffff" />
    <line x1="18" x2="18.01" y1="10" y2="10" fill="none" stroke="#ffffff" />
    <path d="M17.32 5H6.68a4 4 0 0 0-3.978 3.59c-.006.052-.01.101-.017.152C2.604 9.416 2 14.456 2 16a3 3 0 0 0 3 3c1 0 1.5-.5 2-1l1.414-1.414A2 2 0 0 1 9.828 16h4.344a2 2 0 0 1 1.414.586L17 18c.5.5 1 1 2 1a3 3 0 0 0 3-3c0-1.545-.604-6.584-.685-7.258-.007-.05-.011-.1-.017-.151A4 4 0 0 0 17.32 5z" fill="none" stroke="#ffffff" />
  </svg>
</svg>
