<svg xmlns="http://www.w3.org/2000/svg" viewBox="0 0 600 400" width="600" height="400">
  <defs>
    <linearGradient id="grad-security" x1="0%" y1="0%" x2="100%" y2="100%">
      <stop offset="0%" style="stop-color:#e11d48;stop-opacity:1" />
      <stop offset="100%" style="stop-color:#b90020;stop-opacity:1" />
    </linearGradient>
    <filter id="shadow-security" x="-50%" y="-50%" width="200%" height="200%">
      <feDropShadow dx="0" dy="10" stdDeviation="14" flood-color="#000000" flood-opacity="0.22" />
    </filter>
  </defs>

  <!-- background -->
  <rect width="600" height="400" fill="url(#grad-security)" rx="16" />

  <!-- icon backdrop -->
  <circle cx="300" cy="200" r="100" fill="#ffffff" fill-opacity="0.14" filter="url(#shadow-security)" />

  <!-- soft accent ring -->
  <circle cx="300" cy="200" r="118" fill="none" stroke="#ffffff" stroke-opacity="0.08" stroke-width="2" />

  <!-- icon -->
  <svg x="222" y="122" width="156" height="156" viewBox="0 0 24 24" fill="none" stroke="#ffffff" stroke-width="1.5" stroke-linecap="round" stroke-linejoin="round">
    <path d="M20 13c0 5-3.5 7.5-7.66 8.95a1 1 0 0 1-.67-.01C7.5 20.5 4 18 4 13V6a1 1 0 0 1 1-1c2 0 4.5-1.2 6.24-2.72a1.17 1.17 0 0 1 1.52 0C14.51 3.81 17 5 19 5a1 1 0 0 1 1 1z" fill="none" stroke="#ffffff" />
    <path d="m9 12 2 2 4-4" fill="none" stroke="#ffffff" />
  </svg>
</svg>
