<svg xmlns="http://www.w3.org/2000/svg" viewBox="0 0 600 400" width="600" height="400">
  <defs>
    <linearGradient id="grad-storage" x1="0%" y1="0%" x2="100%" y2="100%">
      <stop offset="0%" style="stop-color:#a855f7;stop-opacity:1" />
      <stop offset="100%" style="stop-color:#802dcf;stop-opacity:1" />
    </linearGradient>
    <filter id="shadow-storage" x="-50%" y="-50%" width="200%" height="200%">
      <feDropShadow dx="0" dy="10" stdDeviation="14" flood-color="#000000" flood-opacity="0.22" />
    </filter>
  </defs>

  <!-- background -->
  <rect width="600" height="400" fill="url(#grad-storage)" rx="16" />

  <!-- icon backdrop -->
  <circle cx="300" cy="200" r="100" fill="#ffffff" fill-opacity="0.14" filter="url(#shadow-storage)" />

  <!-- soft accent ring -->
  <circle cx="300" cy="200" r="118" fill="none" stroke="#ffffff" stroke-opacity="0.08" stroke-width="2" />

  <!-- icon -->
  <svg x="222" y="122" width="156" height="156" viewBox="0 0 24 24" fill="none" stroke="#ffffff" stroke-width="1.5" stroke-linecap="round" stroke-linejoin="round">
    <path d="M10 16h.01" fill="none" stroke="#ffffff" />
    <path d="M2.212 11.577a2 2 0 0 0-.212.896V18a2 2 0 0 0 2 2h16a2 2 0 0 0 2-2v-5.527a2 2 0 0 0-.212-.896L18.55 5.11A2 2 0 0 0 16.76 4H7.24a2 2 0 0 0-1.79 1.11z" fill="none" stroke="#ffffff" />
    <path d="M21.946 12.013H2.054" fill="none" stroke="#ffffff" />
    <path d="M6 16h.01" fill="none" stroke="#ffffff" />
  </svg>
</svg>
