<?xml version="1.0" encoding="utf-8"?>
<!-- Generator: Adobe Illustrator 16.0.0, SVG Export Plug-In . SVG Version: 6.00 Build 0)  -->
<!DOCTYPE svg PUBLIC "-//W3C//DTD SVG 1.1//EN" "http://www.w3.org/Graphics/SVG/1.1/DTD/svg11.dtd">
<svg version="1.1" xmlns="http://www.w3.org/2000/svg" xmlns:xlink="http://www.w3.org/1999/xlink" x="0px" y="0px" width="469px"
	 height="90px" viewBox="0 0 469 90" enable-background="new 0 0 469 90" xml:space="preserve">
<g id="Layer_2" display="none">
	<rect display="inline" fill-rule="evenodd" clip-rule="evenodd" width="470.667" height="90"/>
</g>
<g id="Layer_1">
	<g>
		<path fill-rule="evenodd" clip-rule="evenodd" fill="#FFFFFF" d="M60.579,17.958c0.541,0.092,1.091,0.148,1.622,0.281
			c3.555,0.889,6.009,3.98,6.028,7.675c0.028,5.597,0.025,11.195,0.001,16.792c-0.015,3.302-1.993,6.149-5.023,7.349
			c-0.179,0.071-0.365,0.126-0.659,0.226c0.075-0.62,0.196-1.154,0.196-1.689c-0.002-4.395-0.024-8.79-0.047-13.184
			c-0.017-3.192-0.045-6.385-0.064-9.577c-0.008-1.418-0.641-2.063-2.048-2.07C53.057,23.727,45.528,23.69,38,23.667
			c-0.66-0.002-1.321,0.087-2.069,0.14c0.445-1.582,1.24-2.82,2.391-3.824c1.298-1.133,2.805-1.805,4.539-1.932
			c0.112-0.008,0.221-0.061,0.332-0.093C48.988,17.958,54.784,17.958,60.579,17.958z"/>
		<path fill-rule="evenodd" clip-rule="evenodd" fill="#FFFFFF" d="M44.924,39.348c-0.269,0.181-0.474,0.276-0.625,0.426
			c-6.459,6.447-12.917,12.897-19.363,19.357c-0.282,0.282-0.546,0.641-0.666,1.013c-0.217,0.673,0.132,1.403,0.734,1.784
			c0.604,0.381,1.363,0.358,1.942-0.074c0.188-0.141,0.353-0.313,0.52-0.48c6.401-6.395,12.801-12.789,19.198-19.188
			c0.152-0.152,0.264-0.344,0.446-0.585c0.829,1.276,1.259,2.54,1.266,3.894c0.029,5.657,0.083,11.315-0.012,16.971
			c-0.069,4.13-3.617,7.467-7.811,7.494c-5.42,0.036-10.841,0.034-16.262,0.002c-4.375-0.026-7.839-3.504-7.86-7.874
			c-0.025-5.42-0.028-10.841,0-16.262c0.023-4.365,3.512-7.834,7.882-7.853c5.401-0.023,10.802-0.013,16.203,0
			C42.043,37.975,43.455,38.399,44.924,39.348z"/>
		<path fill-rule="evenodd" clip-rule="evenodd" fill="#FFFFFF" d="M147.889,39.396c2.132-2.524,4.218-4.804,6.623-6.771
			c0.165-0.134,0.421-0.221,0.635-0.221c6.979-0.011,13.957-0.024,20.935,0.017c0.633,0.004,1.317,0.275,1.881,0.593
			c0.712,0.4,1.368,0.93,1.97,1.487c0.812,0.75,1.188,1.676,1.18,2.841c-0.042,6.347-0.026,12.694-0.011,19.042
			c0.002,0.732-0.168,1.395-0.678,1.892c-0.728,0.71-1.489,1.399-2.307,2.002c-0.759,0.559-1.661,0.742-2.625,0.739
			c-7.037-0.019-14.074-0.021-21.112-0.001c-1.569,0.005-2.883-0.552-4.026-1.567c-0.941-0.838-1.447-1.86-1.425-3.171
			c0.044-2.661,0.056-5.323-0.005-7.983c-0.03-1.319,0.431-2.382,1.28-3.319c1.06-1.17,2.288-1.854,3.973-1.835
			c5.795,0.066,11.59,0.025,17.386,0.025c0.234,0,0.467,0,0.741,0c0-1.259,0-2.472,0-3.769
			C164.232,39.396,156.15,39.396,147.889,39.396z M172.324,44.594c-0.215,0.169-0.339,0.26-0.457,0.359
			c-1.875,1.596-3.755,3.186-5.619,4.794c-0.333,0.287-0.665,0.418-1.11,0.414c-2.107-0.021-4.215-0.011-6.323-0.009
			c-0.819,0.001-1.063,0.195-1.128,1.018c-0.049,0.606-0.036,1.221-0.01,1.829c0.037,0.859,0.224,1.024,1.081,1.024
			c4.333,0.002,8.667,0.001,13-0.001c0.187,0,0.374-0.022,0.565-0.035C172.324,50.846,172.324,47.778,172.324,44.594z"/>
		<path fill-rule="evenodd" clip-rule="evenodd" fill="#FFFFFF" d="M207.712,50.23c0,1.286,0,2.499,0,3.781
			c8.095,0,16.162,0,24.378,0c-0.453,0.543-0.784,1.002-1.177,1.4c-1.743,1.765-3.493,3.521-5.269,5.254
			c-0.208,0.203-0.588,0.325-0.888,0.326c-6.839,0.018-13.679,0.025-20.518-0.006c-0.624-0.003-1.312-0.166-1.855-0.463
			c-0.802-0.438-1.542-1.016-2.236-1.619c-0.869-0.755-1.25-1.709-1.24-2.924c0.05-6.308,0.031-12.615,0.013-18.922
			c-0.002-0.755,0.219-1.38,0.676-1.958c0.783-0.993,1.724-1.801,2.883-2.296c0.546-0.233,1.171-0.392,1.761-0.394
			c7.194-0.026,14.389-0.019,21.583-0.016c1.846,0.001,3.289,0.839,4.446,2.213c0.549,0.653,0.799,1.422,0.793,2.293
			c-0.019,2.74-0.052,5.48,0.012,8.218c0.033,1.394-0.492,2.484-1.403,3.447c-1.044,1.104-2.254,1.707-3.86,1.688
			c-5.774-0.063-11.55-0.024-17.325-0.024C208.252,50.23,208.017,50.23,207.712,50.23z M207.712,48.768
			c0.218-0.165,0.359-0.263,0.489-0.373c1.876-1.596,3.742-3.202,5.634-4.778c0.245-0.204,0.619-0.349,0.936-0.353
			c2.147-0.031,4.295-0.014,6.442-0.018c0.801-0.001,1.077-0.217,1.162-1.015c0.06-0.565,0.047-1.141,0.025-1.711
			c-0.039-1.005-0.203-1.149-1.205-1.15c-4.275-0.001-8.551,0-12.827,0c-0.209,0-0.419,0-0.656,0
			C207.712,42.517,207.712,45.585,207.712,48.768z"/>
		<path fill-rule="evenodd" clip-rule="evenodd" fill="#FFFFFF" d="M110.636,32.393c-0.355,0.546-0.594,1-0.912,1.387
			c-1.658,2.019-3.545,3.805-5.62,5.388c-0.207,0.157-0.546,0.193-0.825,0.194c-5.499,0.011-10.998,0.008-16.497,0.008
			c-0.234,0-0.468,0-0.753,0c0,1.265,0,2.491,0,3.794c0.228,0,0.457,0,0.687,0c5.972,0,11.944-0.002,17.916,0.001
			c1.98,0,3.588,0.794,4.826,2.328c0.754,0.935,1.142,2.003,1.133,3.22c-0.016,2.228,0.002,4.455-0.006,6.682
			c-0.011,2.896-2.593,5.586-5.492,5.596c-9.185,0.03-18.369,0.012-27.554,0.011c-0.075,0-0.15-0.014-0.336-0.031
			c0.227-0.38,0.39-0.734,0.625-1.032c1.69-2.147,3.621-4.055,5.801-5.701c0.209-0.158,0.546-0.203,0.825-0.203
			c5.538-0.012,11.077-0.009,16.615-0.009c0.23,0,0.461,0,0.761,0c0-1.247,0.007-2.424-0.013-3.6
			c-0.001-0.092-0.181-0.227-0.299-0.259c-0.166-0.045-0.352-0.015-0.529-0.015c-5.933,0-11.865-0.016-17.797,0.01
			c-1.688,0.007-3.13-0.528-4.351-1.665c-1.06-0.985-1.624-2.2-1.617-3.67c0.011-2.267-0.001-4.533,0.004-6.8
			c0.007-3.009,2.597-5.611,5.625-5.628c2.976-0.017,5.952-0.004,8.928-0.004c6.011,0,12.022,0,18.034,0
			C110.028,32.393,110.244,32.393,110.636,32.393z"/>
		<path fill-rule="evenodd" clip-rule="evenodd" fill="#FFFFFF" d="M145.833,32.42c-0.454,0.645-0.773,1.271-1.248,1.74
			c-1.694,1.672-3.432,3.302-5.182,4.916c-0.212,0.196-0.602,0.281-0.91,0.282c-4.79,0.017-9.579,0.012-14.368,0.012
			c-0.232,0-0.463,0-0.733,0c0,4.898,0,9.735,0,14.642c7.434,0,14.851,0,22.456,0c-0.455,0.657-0.777,1.217-1.189,1.699
			c-1.591,1.864-3.36,3.548-5.308,5.037c-0.199,0.152-0.496,0.247-0.748,0.247c-6.129,0.013-12.259-0.001-18.389,0.012
			c-2.526,0.006-5.67-2.334-5.632-5.634c0.068-5.774,0.016-11.549,0.02-17.325c0.002-3.018,2.583-5.644,5.603-5.649
			c8.357-0.016,16.714-0.005,25.071-0.005C145.406,32.394,145.538,32.406,145.833,32.42z"/>
		<path fill-rule="evenodd" clip-rule="evenodd" fill="#FFFFFF" d="M430.198,50.23c0,1.303,0,2.516,0,3.775
			c8.092,0,16.146,0,24.292,0c-0.109,0.18-0.161,0.294-0.238,0.388c-1.772,2.173-3.687,4.208-5.814,6.042
			c-0.453,0.391-0.898,0.589-1.524,0.586c-6.682-0.025-13.364-0.071-20.045,0.02c-1.922,0.025-4.73-2.152-5.298-3.574
			c-0.112-0.283-0.156-0.612-0.156-0.92c-0.009-6.563-0.019-13.127,0.015-19.69c0.003-0.513,0.217-1.09,0.503-1.525
			c0.774-1.176,1.852-2.049,3.155-2.583c0.515-0.21,1.102-0.338,1.655-0.34c7.175-0.022,14.35-0.013,21.524-0.016
			c1.824,0,3.258,0.807,4.422,2.143c0.589,0.675,0.859,1.475,0.852,2.391c-0.021,2.7-0.062,5.402,0.014,8.1
			c0.043,1.532-0.553,2.703-1.587,3.728c-1.008,0.999-2.161,1.515-3.644,1.5c-5.794-0.056-11.59-0.022-17.384-0.022
			C430.706,50.23,430.474,50.23,430.198,50.23z M450.506,55.91c-0.019-0.045-0.038-0.09-0.057-0.135c-0.227,0-0.453,0-0.68,0
			c-6.623,0-13.247,0.001-19.87,0c-0.713,0-1.49-0.778-1.49-1.495c-0.001-5.066-0.002-10.132,0-15.198
			c0-0.672,0.79-1.465,1.458-1.465c4.908-0.001,9.816-0.002,14.725,0c0.892,0,1.99,0.984,2.022,1.869
			c0.041,1.122,0.051,2.248,0.011,3.37c-0.038,1.091-1.182,2.138-2.256,2.139c-2.109,0.001-4.219-0.011-6.327,0.013
			c-0.285,0.004-0.622,0.121-0.842,0.3c-1.085,0.882-2.137,1.806-3.207,2.708c-0.142,0.119-0.318,0.197-0.479,0.294
			c0.216,0.153,0.293,0.164,0.37,0.164c4.791,0.001,9.581,0.011,14.371-0.004c1.797-0.005,3.496-1.701,3.526-3.559
			c0.039-2.463,0.031-4.928,0-7.392c-0.015-1.161-0.52-2.072-1.589-2.64c-0.888-0.472-1.803-0.74-2.82-0.738
			c-6.445,0.015-12.892,0.033-19.338-0.012c-1.431-0.01-2.62,0.446-3.698,1.3c-0.759,0.601-1.197,1.368-1.194,2.386
			c0.015,5.914,0.015,11.828-0.003,17.741c-0.002,0.806,0.229,1.513,0.793,2.03c1.027,0.942,2.17,1.674,3.665,1.67
			c5.854-0.018,11.71-0.045,17.563,0.022c1.296,0.015,2.315-0.26,3.184-1.231C449.019,57.293,449.782,56.619,450.506,55.91z
			 M430.186,48.773c0.218-0.165,0.345-0.252,0.462-0.352c1.875-1.596,3.757-3.185,5.616-4.799c0.324-0.281,0.644-0.386,1.062-0.383
			c2.108,0.016,4.216,0.009,6.324,0.006c0.861-0.001,1.138-0.229,1.212-1.092c0.049-0.567,0.036-1.142,0.01-1.712
			c-0.041-0.918-0.218-1.072-1.159-1.072c-4.314-0.001-8.63,0-12.944,0c-0.188,0-0.377,0-0.582,0
			C430.186,42.527,430.186,45.594,430.186,48.773z"/>
		<path fill-rule="evenodd" clip-rule="evenodd" fill="#FFFFFF" d="M194.437,21.336c0,0.388,0,0.583,0,0.777
			c0,10.129,0.004,20.259-0.014,30.389c-0.001,0.384-0.109,0.851-0.341,1.14c-2.144,2.677-4.643,4.98-7.46,6.937
			c-0.192,0.134-0.413,0.228-0.623,0.336c-0.066,0.033-0.141,0.052-0.282,0.103c-0.012-0.25-0.031-0.454-0.031-0.659
			c-0.001-9.912-0.005-19.825,0.015-29.737c0-0.329,0.162-0.735,0.387-0.975c2.135-2.264,4.288-4.512,6.464-6.736
			C193.082,22.368,193.718,21.93,194.437,21.336z"/>
		<path fill-rule="evenodd" clip-rule="evenodd" fill="#FFFFFF" d="M293.479,60.99c-2.957,0-5.812,0-8.743,0
			c0-7.154,0-14.292,0-21.463c-5.25,0-10.421,0-15.667,0c0,0.262,0,0.492,0,0.722c0,4.257,0.01,8.514-0.016,12.771
			c-0.002,0.383-0.121,0.846-0.355,1.136c-2.137,2.656-4.623,4.945-7.42,6.895c-0.265,0.185-0.576,0.304-0.962,0.503
			c0-0.365,0-0.615,0-0.866c0-7.567,0.011-15.135-0.014-22.702c-0.003-0.908,0.192-1.721,0.681-2.458
			c0.401-0.605,0.834-1.197,1.314-1.74c0.862-0.975,1.911-1.427,3.28-1.418c7.705,0.051,15.41,0.031,23.115,0.015
			c0.837-0.002,1.536,0.248,2.172,0.765c0.966,0.784,1.743,1.724,2.222,2.867c0.222,0.529,0.374,1.132,0.376,1.703
			c0.024,7.548,0.017,15.096,0.017,22.644C293.479,60.555,293.479,60.747,293.479,60.99z M262.058,58.071
			c1.387-0.922,4.081-3.515,4.923-4.782c0.192-0.29,0.32-0.684,0.322-1.031c0.021-4.297,0.014-8.594,0.015-12.891
			c0-0.888,0.725-1.625,1.598-1.625c5.322,0,10.645,0,15.967,0c0.874,0,1.599,0.734,1.599,1.619c0,6.387,0,12.773,0,19.16
			c0,0.229,0,0.457,0,0.692c1.784,0,3.489,0,5.248,0c0-0.287,0-0.539,0-0.792c0-6.445-0.028-12.892,0.022-19.337
			c0.011-1.456-0.462-2.655-1.319-3.752c-0.601-0.768-1.385-1.188-2.393-1.187c-7.393,0.008-14.784,0.01-22.177-0.003
			c-0.798-0.001-1.513,0.215-2.041,0.771c-0.988,1.041-1.772,2.196-1.77,3.738c0.015,6.249,0.006,12.498,0.006,18.746
			C262.058,57.592,262.058,57.786,262.058,58.071z"/>
		<path fill-rule="evenodd" clip-rule="evenodd" fill="#FFFFFF" d="M349.023,39.538c0,0.27,0,0.503,0,0.736
			c0,4.257,0.007,8.513-0.014,12.77c-0.002,0.349-0.097,0.771-0.306,1.034c-2.187,2.745-4.738,5.104-7.646,7.075
			c-0.161,0.11-0.346,0.188-0.522,0.273c-0.049,0.023-0.11,0.022-0.233,0.045c-0.012-0.224-0.031-0.428-0.031-0.633
			c-0.002-7.725-0.014-15.45,0.021-23.175c0.003-0.636,0.239-1.316,0.529-1.894c0.331-0.66,0.801-1.264,1.285-1.829
			c0.911-1.064,2.013-1.59,3.508-1.578c7.686,0.064,15.371,0.036,23.057,0.021c0.814-0.001,1.497,0.244,2.119,0.744
			c1.019,0.818,1.813,1.813,2.312,3.017c0.184,0.443,0.315,0.945,0.316,1.421c0.02,7.646,0.014,15.292,0.013,22.938
			c0,0.137-0.013,0.274-0.021,0.456c-2.893,0-5.776,0-8.717,0c0-7.129,0-14.254,0-21.423
			C359.467,39.538,354.295,39.538,349.023,39.538z M371.651,59.229c0.014-0.17,0.03-0.285,0.03-0.4
			c0.001-6.84,0.031-13.681-0.021-20.52c-0.012-1.529-0.828-2.787-2.072-3.673c-0.404-0.289-0.982-0.464-1.482-0.466
			c-7.471-0.029-14.941-0.028-22.413-0.001c-0.502,0.002-1.093,0.154-1.487,0.446c-1.305,0.961-2.174,2.254-2.182,3.924
			c-0.028,6.308-0.012,12.616-0.01,18.923c0,0.187,0.018,0.373,0.032,0.648c1.803-1.504,3.519-2.954,4.857-4.778
			c0.225-0.306,0.351-0.755,0.353-1.139c0.024-4.298,0.015-8.595,0.016-12.892c0-0.8,0.753-1.559,1.545-1.559
			c5.303-0.001,10.604,0,15.907,0c1.012,0,1.711,0.688,1.711,1.684c0,6.367,0,12.734,0,19.101c0,0.229,0,0.456,0,0.703
			C368.208,59.229,369.898,59.229,371.651,59.229z"/>
		<path fill-rule="evenodd" clip-rule="evenodd" fill="#FFFFFF" d="M400.126,21.33c0,3.794,0,7.392,0,11.05
			c6.045,0,12.043,0,18.225,0c-0.447,0.649-0.739,1.245-1.184,1.687c-1.731,1.719-3.503,3.398-5.285,5.064
			c-0.184,0.172-0.534,0.229-0.808,0.229c-3.39,0.015-6.779,0.01-10.169,0.01c-0.232,0-0.465,0-0.742,0c0,4.887,0,9.724,0,14.629
			c5.995,0,11.994,0,18.168,0c-0.366,0.561-0.613,1.025-0.94,1.425c-1.642,2.006-3.535,3.758-5.551,5.378
			c-0.165,0.132-0.43,0.195-0.648,0.196c-4.75,0.01-9.499,0.001-14.248,0.007c-2.511,0.003-5.627-2.342-5.6-5.665
			c0.065-8.217,0.024-16.435,0.014-24.652c-0.001-0.443,0.111-0.774,0.426-1.098c2.155-2.217,4.28-4.464,6.443-6.674
			C398.759,22.373,399.396,21.934,400.126,21.33z M414.559,55.971c-0.035-0.065-0.07-0.13-0.106-0.195c-0.215,0-0.43,0-0.645,0
			c-4.631,0-9.262,0.001-13.892,0c-0.794,0-1.549-0.757-1.549-1.555c-0.001-5.024-0.001-10.049,0-15.074
			c0-0.761,0.76-1.53,1.511-1.53c2.976-0.001,5.951,0,8.927,0c2.102,0,2.106,0.004,3.693-1.424c0.693-0.624,1.365-1.272,2.047-1.909
			c-0.022-0.045-0.045-0.09-0.067-0.135c-0.21,0-0.419,0-0.629,0c-4.631,0-9.262,0-13.893,0c-0.851,0-1.589-0.727-1.59-1.564
			c0-2.207,0.001-4.414-0.001-6.621c0-0.186-0.019-0.371-0.028-0.556c-0.054-0.034-0.107-0.068-0.16-0.103
			c-0.181,0.229-0.346,0.472-0.543,0.686c-1.374,1.494-2.768,2.969-4.121,4.481c-0.222,0.248-0.388,0.646-0.389,0.976
			c-0.021,7.685-0.011,15.37-0.02,23.055c-0.003,3.006,1.798,4.674,4.722,4.725c4.177,0.073,8.354,0.022,12.532,0.018
			c0.188-0.001,0.427-0.012,0.556-0.121C412.14,58.086,413.347,57.025,414.559,55.971z"/>
		<path fill-rule="evenodd" clip-rule="evenodd" fill="#FFFFFF" d="M324.918,32.426c-0.354,0.537-0.611,1.021-0.954,1.433
			c-1.644,1.978-3.5,3.739-5.542,5.301c-0.194,0.148-0.506,0.201-0.764,0.202c-3.35,0.013-6.7,0.009-10.051,0.009
			c-0.234,0-0.469,0-0.756,0c0,2.505,0,4.974,0,7.509c5.333,0,10.666,0,16.182,0c-0.318,0.511-0.5,0.952-0.809,1.272
			c-1.487,1.545-3.023,3.042-4.513,4.586c-0.896,0.93-1.929,1.235-3.222,1.181c-2.321-0.098-4.649-0.027-6.976-0.027
			c-0.212,0-0.425,0-0.716,0c0,0.281,0,0.51,0,0.738c0,2.897,0.018,5.795-0.02,8.691c-0.006,0.436-0.167,0.945-0.43,1.287
			c-1.546,2.01-3.433,3.688-5.358,5.321c-0.099,0.085-0.238,0.169-0.36,0.171c-0.842,0.015-1.684,0.008-2.585,0.008
			c0-0.276,0-0.488,0-0.7c0-10.446,0.032-20.892-0.021-31.337c-0.016-3.042,2.83-5.679,5.602-5.678
			c6.918,0.003,13.836,0.001,20.754,0.002C324.512,32.395,324.643,32.409,324.918,32.426z M319.294,48.786
			c-0.024-0.051-0.049-0.102-0.073-0.152c-0.208,0-0.416,0-0.624,0c-4.001,0-8.002,0.001-12.003-0.001
			c-0.795,0-1.547-0.762-1.547-1.563c-0.001-2.641-0.001-5.282,0-7.923c0.001-0.761,0.761-1.529,1.513-1.53
			c3.409,0,6.819,0.01,10.229-0.016c0.339-0.002,0.742-0.139,1.004-0.351c0.978-0.793,1.912-1.641,2.856-2.477
			c0.18-0.159,0.328-0.353,0.546-0.589c-0.192-0.019-0.268-0.033-0.343-0.033c-5.499,0-10.999-0.06-16.497,0.026
			c-2.796,0.043-4.554,1.744-4.56,4.649c-0.021,9.717-0.008,19.434-0.006,29.151c0,0.139,0.029,0.278,0.052,0.48
			c1.737-1.467,3.396-2.887,4.752-4.624c0.315-0.404,0.468-0.824,0.464-1.354c-0.022-2.917-0.011-5.834-0.011-8.751
			c0-0.842,0.738-1.592,1.566-1.592c2.404-0.001,4.812-0.063,7.213,0.026c1.19,0.044,2.126-0.26,2.962-1.087
			C317.591,50.281,318.456,49.547,319.294,48.786z"/>
		<path fill-rule="evenodd" clip-rule="evenodd" fill="#FFFFFF" d="M23.962,34.37c0.344-0.975,0.539-1.871,0.956-2.648
			c1.48-2.763,3.826-4.272,6.972-4.296c6.386-0.05,12.771-0.016,19.157-0.014c1.533,0,2.946,0.41,4.177,1.2
			c-2.639,2.639-5.266,5.266-7.922,7.922c-0.623-0.344-1.353-0.805-2.129-1.166c-1.579-0.734-3.257-1.009-4.998-1.003
			c-5.085,0.015-10.17,0.005-15.255,0.005C24.686,34.37,24.451,34.37,23.962,34.37z"/>
		<path fill-rule="evenodd" clip-rule="evenodd" fill="#FFFFFF" d="M57.817,31.242c0.764,1.208,1.146,2.59,1.148,4.074
			c0.007,6.365,0.025,12.73-0.005,19.095c-0.019,3.914-2.835,7.237-6.519,7.802c-0.113,0.018-0.228,0.023-0.431,0.043
			c0-0.262,0-0.491,0-0.72c0-4.927-0.037-9.854,0.014-14.779c0.029-2.784-0.55-5.351-2.16-7.562
			C52.516,36.543,55.143,33.916,57.817,31.242z"/>
		<path fill-rule="evenodd" clip-rule="evenodd" fill="#FFFFFF" d="M255.703,31.94c0,0.269,0,0.464,0,0.66
			c0,6.798,0.006,13.597-0.015,20.396c-0.001,0.364-0.12,0.804-0.343,1.081c-2.147,2.673-4.646,4.977-7.465,6.93
			c-0.252,0.175-0.544,0.292-0.931,0.494c0-0.318,0-0.524,0-0.73c0-6.542,0.003-13.085-0.007-19.626
			c-0.001-0.42,0.099-0.738,0.401-1.047c2.302-2.349,4.58-4.721,6.883-7.068c0.369-0.377,0.823-0.671,1.241-1.001
			C255.51,31.996,255.57,31.989,255.703,31.94z M248.692,58.084c1.88-1.586,3.63-3.054,4.976-4.927
			c0.179-0.249,0.271-0.616,0.271-0.93c0.017-5.283,0.013-10.565,0.011-15.849c0-0.163-0.024-0.325-0.052-0.679
			c-0.294,0.337-0.469,0.549-0.655,0.75c-1.378,1.491-2.75,2.987-4.144,4.463c-0.292,0.309-0.417,0.616-0.416,1.044
			c0.014,5.125,0.009,10.25,0.009,15.375C248.692,57.525,248.692,57.718,248.692,58.084z"/>
		<path fill-rule="evenodd" clip-rule="evenodd" fill="#FFFFFF" d="M327.023,61.408c0-0.282,0-0.479,0-0.674
			c0-6.522,0.003-13.045-0.009-19.567c-0.001-0.443,0.112-0.775,0.427-1.097c2.287-2.335,4.551-4.694,6.842-7.026
			c0.409-0.417,0.908-0.745,1.458-1.188c0.016,0.293,0.033,0.478,0.033,0.662c0.002,6.837,0.007,13.675-0.013,20.513
			c-0.001,0.346-0.116,0.763-0.328,1.026c-2.159,2.69-4.67,5.009-7.509,6.969c-0.193,0.133-0.413,0.229-0.625,0.332
			C327.235,61.39,327.153,61.387,327.023,61.408z M328.792,57.919c0.079,0,0.128,0.016,0.149-0.002
			c1.739-1.429,3.445-2.893,4.774-4.729c0.2-0.276,0.295-0.689,0.296-1.04c0.019-5.224,0.013-10.447,0.013-15.671
			c0-0.188,0-0.376,0-0.564c-0.066-0.045-0.133-0.091-0.198-0.136c-0.147,0.201-0.277,0.417-0.445,0.6
			c-1.401,1.523-2.8,3.048-4.224,4.551c-0.298,0.314-0.4,0.63-0.399,1.051c0.012,5.125,0.008,10.25,0.009,15.375
			C328.767,57.544,328.783,57.734,328.792,57.919z"/>
		<path fill-rule="evenodd" clip-rule="evenodd" fill="#FFFFFF" d="M378,61.395c0-0.228,0-0.44,0-0.653
			c0-6.522,0.004-13.045-0.008-19.567c-0.001-0.441,0.104-0.775,0.422-1.099c2.287-2.335,4.55-4.694,6.84-7.026
			c0.41-0.417,0.909-0.747,1.441-1.176c0.025,0.232,0.056,0.376,0.056,0.52c0.002,6.897,0.006,13.793-0.011,20.691
			c0,0.311-0.102,0.685-0.291,0.922c-2.207,2.754-4.765,5.135-7.694,7.109c-0.161,0.108-0.349,0.18-0.528,0.26
			C378.178,61.396,378.114,61.386,378,61.395z M385.001,35.779c-0.198,0.17-0.279,0.227-0.345,0.297
			c-1.571,1.688-3.147,3.372-4.699,5.077c-0.148,0.163-0.205,0.461-0.206,0.697c-0.012,5.204-0.009,10.408-0.007,15.612
			c0,0.16,0.025,0.319,0.042,0.518c1.367-0.916,4.015-3.461,4.867-4.736c0.203-0.304,0.332-0.721,0.333-1.087
			c0.021-5.224,0.015-10.447,0.015-15.671C385.001,36.297,385.001,36.107,385.001,35.779z"/>
	</g>
</g>
</svg>
